<mxfile host="app.diagrams.net" modified="2024-01-10T19:11:46.400Z" agent="Mozilla/5.0 (Windows NT 10.0; Win64; x64) AppleWebKit/537.36 (KHTML, like Gecko) Chrome/120.0.0.0 Safari/537.36" etag="f-eNQi5asQJo1XkKY98I" version="22.1.16" type="device">
  <diagram name="Page-1" id="Fv8KaYR-JvNwcMZNE2SZ">
    <mxGraphModel dx="2261" dy="746" grid="1" gridSize="10" guides="1" tooltips="1" connect="1" arrows="1" fold="1" page="1" pageScale="1" pageWidth="827" pageHeight="1169" math="0" shadow="0">
      <root>
        <mxCell id="0" />
        <mxCell id="1" parent="0" />
        <mxCell id="BX7kA0cPgQBeDkkXXVo6-6" style="edgeStyle=orthogonalEdgeStyle;rounded=0;orthogonalLoop=1;jettySize=auto;html=1;exitX=0.5;exitY=1;exitDx=0;exitDy=0;entryX=0.5;entryY=0;entryDx=0;entryDy=0;" parent="1" source="BX7kA0cPgQBeDkkXXVo6-1" target="BX7kA0cPgQBeDkkXXVo6-2" edge="1">
          <mxGeometry relative="1" as="geometry" />
        </mxCell>
        <mxCell id="BX7kA0cPgQBeDkkXXVo6-8" style="edgeStyle=orthogonalEdgeStyle;rounded=0;orthogonalLoop=1;jettySize=auto;html=1;exitX=0.5;exitY=1;exitDx=0;exitDy=0;entryX=0.5;entryY=0;entryDx=0;entryDy=0;" parent="1" source="BX7kA0cPgQBeDkkXXVo6-1" target="BX7kA0cPgQBeDkkXXVo6-4" edge="1">
          <mxGeometry relative="1" as="geometry" />
        </mxCell>
        <mxCell id="BX7kA0cPgQBeDkkXXVo6-9" style="edgeStyle=orthogonalEdgeStyle;rounded=0;orthogonalLoop=1;jettySize=auto;html=1;exitX=0.5;exitY=1;exitDx=0;exitDy=0;" parent="1" source="BX7kA0cPgQBeDkkXXVo6-1" target="BX7kA0cPgQBeDkkXXVo6-5" edge="1">
          <mxGeometry relative="1" as="geometry" />
        </mxCell>
        <mxCell id="BX7kA0cPgQBeDkkXXVo6-27" style="edgeStyle=orthogonalEdgeStyle;rounded=0;orthogonalLoop=1;jettySize=auto;html=1;exitX=0.5;exitY=1;exitDx=0;exitDy=0;" parent="1" source="BX7kA0cPgQBeDkkXXVo6-1" target="BX7kA0cPgQBeDkkXXVo6-3" edge="1">
          <mxGeometry relative="1" as="geometry" />
        </mxCell>
        <mxCell id="HLrpRylggNIvmOIp0Eyk-2" style="edgeStyle=orthogonalEdgeStyle;rounded=0;orthogonalLoop=1;jettySize=auto;html=1;exitX=0.5;exitY=1;exitDx=0;exitDy=0;entryX=0.5;entryY=0;entryDx=0;entryDy=0;" parent="1" source="BX7kA0cPgQBeDkkXXVo6-1" target="HLrpRylggNIvmOIp0Eyk-1" edge="1">
          <mxGeometry relative="1" as="geometry" />
        </mxCell>
        <mxCell id="BX7kA0cPgQBeDkkXXVo6-1" value="TabPane" style="rounded=0;whiteSpace=wrap;html=1;" parent="1" vertex="1">
          <mxGeometry x="600" y="220" width="120" height="40" as="geometry" />
        </mxCell>
        <mxCell id="TByVffR39HUTfPPyJdH0-6" style="edgeStyle=orthogonalEdgeStyle;rounded=0;orthogonalLoop=1;jettySize=auto;html=1;exitX=0.5;exitY=1;exitDx=0;exitDy=0;" edge="1" parent="1" source="BX7kA0cPgQBeDkkXXVo6-2" target="TByVffR39HUTfPPyJdH0-1">
          <mxGeometry relative="1" as="geometry" />
        </mxCell>
        <mxCell id="BX7kA0cPgQBeDkkXXVo6-2" value="Tab" style="rounded=0;whiteSpace=wrap;html=1;" parent="1" vertex="1">
          <mxGeometry x="380" y="380" width="120" height="40" as="geometry" />
        </mxCell>
        <mxCell id="TByVffR39HUTfPPyJdH0-8" style="edgeStyle=orthogonalEdgeStyle;rounded=0;orthogonalLoop=1;jettySize=auto;html=1;exitX=0.5;exitY=1;exitDx=0;exitDy=0;entryX=0.5;entryY=0;entryDx=0;entryDy=0;" edge="1" parent="1" source="BX7kA0cPgQBeDkkXXVo6-3" target="TByVffR39HUTfPPyJdH0-2">
          <mxGeometry relative="1" as="geometry" />
        </mxCell>
        <mxCell id="BX7kA0cPgQBeDkkXXVo6-3" value="Tab" style="rounded=0;whiteSpace=wrap;html=1;" parent="1" vertex="1">
          <mxGeometry x="530" y="380" width="120" height="40" as="geometry" />
        </mxCell>
        <mxCell id="TByVffR39HUTfPPyJdH0-10" style="edgeStyle=orthogonalEdgeStyle;rounded=0;orthogonalLoop=1;jettySize=auto;html=1;exitX=0.5;exitY=1;exitDx=0;exitDy=0;" edge="1" parent="1" source="BX7kA0cPgQBeDkkXXVo6-4" target="TByVffR39HUTfPPyJdH0-3">
          <mxGeometry relative="1" as="geometry" />
        </mxCell>
        <mxCell id="BX7kA0cPgQBeDkkXXVo6-4" value="Tab" style="rounded=0;whiteSpace=wrap;html=1;" parent="1" vertex="1">
          <mxGeometry x="674" y="380" width="120" height="40" as="geometry" />
        </mxCell>
        <mxCell id="TByVffR39HUTfPPyJdH0-12" style="edgeStyle=orthogonalEdgeStyle;rounded=0;orthogonalLoop=1;jettySize=auto;html=1;exitX=0.5;exitY=1;exitDx=0;exitDy=0;entryX=0.5;entryY=0;entryDx=0;entryDy=0;" edge="1" parent="1" source="BX7kA0cPgQBeDkkXXVo6-5" target="TByVffR39HUTfPPyJdH0-4">
          <mxGeometry relative="1" as="geometry" />
        </mxCell>
        <mxCell id="BX7kA0cPgQBeDkkXXVo6-5" value="Tab" style="rounded=0;whiteSpace=wrap;html=1;" parent="1" vertex="1">
          <mxGeometry x="820" y="380" width="120" height="40" as="geometry" />
        </mxCell>
        <mxCell id="BX7kA0cPgQBeDkkXXVo6-14" style="edgeStyle=orthogonalEdgeStyle;rounded=0;orthogonalLoop=1;jettySize=auto;html=1;exitX=0.5;exitY=1;exitDx=0;exitDy=0;entryX=0.5;entryY=0;entryDx=0;entryDy=0;" parent="1" source="BX7kA0cPgQBeDkkXXVo6-10" target="BX7kA0cPgQBeDkkXXVo6-13" edge="1">
          <mxGeometry relative="1" as="geometry" />
        </mxCell>
        <mxCell id="BX7kA0cPgQBeDkkXXVo6-10" value="ScrollPane" style="rounded=0;whiteSpace=wrap;html=1;" parent="1" vertex="1">
          <mxGeometry x="310" y="560" width="120" height="40" as="geometry" />
        </mxCell>
        <mxCell id="BX7kA0cPgQBeDkkXXVo6-17" style="edgeStyle=orthogonalEdgeStyle;rounded=0;orthogonalLoop=1;jettySize=auto;html=1;exitX=0.5;exitY=1;exitDx=0;exitDy=0;entryX=0.5;entryY=0;entryDx=0;entryDy=0;" parent="1" source="BX7kA0cPgQBeDkkXXVo6-13" target="BX7kA0cPgQBeDkkXXVo6-16" edge="1">
          <mxGeometry relative="1" as="geometry" />
        </mxCell>
        <mxCell id="BX7kA0cPgQBeDkkXXVo6-18" style="edgeStyle=orthogonalEdgeStyle;rounded=0;orthogonalLoop=1;jettySize=auto;html=1;exitX=0.5;exitY=1;exitDx=0;exitDy=0;" parent="1" source="BX7kA0cPgQBeDkkXXVo6-13" target="BX7kA0cPgQBeDkkXXVo6-15" edge="1">
          <mxGeometry relative="1" as="geometry" />
        </mxCell>
        <mxCell id="BX7kA0cPgQBeDkkXXVo6-13" value="VBox" style="rounded=0;whiteSpace=wrap;html=1;" parent="1" vertex="1">
          <mxGeometry x="300" y="660" width="120" height="40" as="geometry" />
        </mxCell>
        <mxCell id="BX7kA0cPgQBeDkkXXVo6-15" value="Hbox" style="rounded=0;whiteSpace=wrap;html=1;" parent="1" vertex="1">
          <mxGeometry x="380" y="745" width="120" height="40" as="geometry" />
        </mxCell>
        <mxCell id="BX7kA0cPgQBeDkkXXVo6-16" value="HBox" style="rounded=0;whiteSpace=wrap;html=1;" parent="1" vertex="1">
          <mxGeometry x="240" y="745" width="120" height="40" as="geometry" />
        </mxCell>
        <mxCell id="BX7kA0cPgQBeDkkXXVo6-19" value="(VueArchive)" style="text;html=1;strokeColor=none;fillColor=none;align=center;verticalAlign=middle;whiteSpace=wrap;rounded=0;" parent="1" vertex="1">
          <mxGeometry x="410" y="340" width="60" height="30" as="geometry" />
        </mxCell>
        <mxCell id="BX7kA0cPgQBeDkkXXVo6-24" style="edgeStyle=orthogonalEdgeStyle;rounded=0;orthogonalLoop=1;jettySize=auto;html=1;exitX=0.5;exitY=1;exitDx=0;exitDy=0;entryX=0.5;entryY=0;entryDx=0;entryDy=0;" parent="1" source="BX7kA0cPgQBeDkkXXVo6-21" target="BX7kA0cPgQBeDkkXXVo6-23" edge="1">
          <mxGeometry relative="1" as="geometry" />
        </mxCell>
        <mxCell id="BX7kA0cPgQBeDkkXXVo6-21" value="ScrollPane" style="rounded=0;whiteSpace=wrap;html=1;" parent="1" vertex="1">
          <mxGeometry x="510" y="570" width="120" height="40" as="geometry" />
        </mxCell>
        <mxCell id="BX7kA0cPgQBeDkkXXVo6-23" value="GridPane" style="rounded=0;whiteSpace=wrap;html=1;" parent="1" vertex="1">
          <mxGeometry x="510" y="670" width="120" height="40" as="geometry" />
        </mxCell>
        <mxCell id="BX7kA0cPgQBeDkkXXVo6-25" value="(VueBureau)" style="text;html=1;strokeColor=none;fillColor=none;align=center;verticalAlign=middle;whiteSpace=wrap;rounded=0;" parent="1" vertex="1">
          <mxGeometry x="560" y="340" width="60" height="30" as="geometry" />
        </mxCell>
        <mxCell id="BX7kA0cPgQBeDkkXXVo6-28" style="edgeStyle=orthogonalEdgeStyle;rounded=0;orthogonalLoop=1;jettySize=auto;html=1;exitX=0.5;exitY=1;exitDx=0;exitDy=0;entryX=0.5;entryY=0;entryDx=0;entryDy=0;" parent="1" source="BX7kA0cPgQBeDkkXXVo6-30" target="BX7kA0cPgQBeDkkXXVo6-32" edge="1">
          <mxGeometry relative="1" as="geometry" />
        </mxCell>
        <mxCell id="BX7kA0cPgQBeDkkXXVo6-29" style="edgeStyle=orthogonalEdgeStyle;rounded=0;orthogonalLoop=1;jettySize=auto;html=1;exitX=0.5;exitY=1;exitDx=0;exitDy=0;" parent="1" source="BX7kA0cPgQBeDkkXXVo6-30" target="BX7kA0cPgQBeDkkXXVo6-31" edge="1">
          <mxGeometry relative="1" as="geometry" />
        </mxCell>
        <mxCell id="BX7kA0cPgQBeDkkXXVo6-30" value="VBox" style="rounded=0;whiteSpace=wrap;html=1;" parent="1" vertex="1">
          <mxGeometry x="860" y="610" width="120" height="40" as="geometry" />
        </mxCell>
        <mxCell id="BX7kA0cPgQBeDkkXXVo6-31" value="Label" style="rounded=0;whiteSpace=wrap;html=1;" parent="1" vertex="1">
          <mxGeometry x="940" y="705" width="120" height="40" as="geometry" />
        </mxCell>
        <mxCell id="BX7kA0cPgQBeDkkXXVo6-32" value="Label" style="rounded=0;whiteSpace=wrap;html=1;" parent="1" vertex="1">
          <mxGeometry x="800" y="705" width="120" height="40" as="geometry" />
        </mxCell>
        <mxCell id="BX7kA0cPgQBeDkkXXVo6-35" style="edgeStyle=orthogonalEdgeStyle;rounded=0;orthogonalLoop=1;jettySize=auto;html=1;exitX=0.5;exitY=1;exitDx=0;exitDy=0;entryX=0.5;entryY=0;entryDx=0;entryDy=0;" parent="1" source="BX7kA0cPgQBeDkkXXVo6-33" target="BX7kA0cPgQBeDkkXXVo6-30" edge="1">
          <mxGeometry relative="1" as="geometry" />
        </mxCell>
        <mxCell id="BX7kA0cPgQBeDkkXXVo6-33" value="ScrollPane" style="rounded=0;whiteSpace=wrap;html=1;" parent="1" vertex="1">
          <mxGeometry x="860" y="550" width="120" height="40" as="geometry" />
        </mxCell>
        <mxCell id="BX7kA0cPgQBeDkkXXVo6-36" value="(VueHistorique)" style="text;html=1;strokeColor=none;fillColor=none;align=center;verticalAlign=middle;whiteSpace=wrap;rounded=0;" parent="1" vertex="1">
          <mxGeometry x="860" y="340" width="60" height="30" as="geometry" />
        </mxCell>
        <mxCell id="BX7kA0cPgQBeDkkXXVo6-37" style="edgeStyle=orthogonalEdgeStyle;rounded=0;orthogonalLoop=1;jettySize=auto;html=1;exitX=0.5;exitY=1;exitDx=0;exitDy=0;entryX=0.5;entryY=0;entryDx=0;entryDy=0;" parent="1" source="BX7kA0cPgQBeDkkXXVo6-38" target="BX7kA0cPgQBeDkkXXVo6-39" edge="1">
          <mxGeometry relative="1" as="geometry" />
        </mxCell>
        <mxCell id="BX7kA0cPgQBeDkkXXVo6-38" value="ScrollPane" style="rounded=0;whiteSpace=wrap;html=1;" parent="1" vertex="1">
          <mxGeometry x="680" y="560" width="120" height="40" as="geometry" />
        </mxCell>
        <mxCell id="BX7kA0cPgQBeDkkXXVo6-39" value="TreeView" style="rounded=0;whiteSpace=wrap;html=1;" parent="1" vertex="1">
          <mxGeometry x="680" y="660" width="120" height="40" as="geometry" />
        </mxCell>
        <mxCell id="BX7kA0cPgQBeDkkXXVo6-41" value="(VueListe)" style="text;html=1;strokeColor=none;fillColor=none;align=center;verticalAlign=middle;whiteSpace=wrap;rounded=0;" parent="1" vertex="1">
          <mxGeometry x="710" y="340" width="60" height="30" as="geometry" />
        </mxCell>
        <mxCell id="TByVffR39HUTfPPyJdH0-14" style="edgeStyle=orthogonalEdgeStyle;rounded=0;orthogonalLoop=1;jettySize=auto;html=1;exitX=0.5;exitY=1;exitDx=0;exitDy=0;entryX=0.5;entryY=0;entryDx=0;entryDy=0;" edge="1" parent="1" source="HLrpRylggNIvmOIp0Eyk-1" target="TByVffR39HUTfPPyJdH0-5">
          <mxGeometry relative="1" as="geometry" />
        </mxCell>
        <mxCell id="HLrpRylggNIvmOIp0Eyk-1" value="Tab" style="rounded=0;whiteSpace=wrap;html=1;" parent="1" vertex="1">
          <mxGeometry x="990" y="380" width="120" height="40" as="geometry" />
        </mxCell>
        <mxCell id="HLrpRylggNIvmOIp0Eyk-7" style="edgeStyle=orthogonalEdgeStyle;rounded=0;orthogonalLoop=1;jettySize=auto;html=1;exitX=0.5;exitY=1;exitDx=0;exitDy=0;" parent="1" source="HLrpRylggNIvmOIp0Eyk-3" target="HLrpRylggNIvmOIp0Eyk-6" edge="1">
          <mxGeometry relative="1" as="geometry" />
        </mxCell>
        <mxCell id="HLrpRylggNIvmOIp0Eyk-3" value="ScrollPane" style="rounded=0;whiteSpace=wrap;html=1;" parent="1" vertex="1">
          <mxGeometry x="1047" y="550" width="120" height="40" as="geometry" />
        </mxCell>
        <mxCell id="HLrpRylggNIvmOIp0Eyk-5" value="(VueGantt)" style="text;html=1;strokeColor=none;fillColor=none;align=center;verticalAlign=middle;whiteSpace=wrap;rounded=0;" parent="1" vertex="1">
          <mxGeometry x="1020" y="340" width="60" height="30" as="geometry" />
        </mxCell>
        <mxCell id="HLrpRylggNIvmOIp0Eyk-6" value="Canvas" style="rounded=0;whiteSpace=wrap;html=1;" parent="1" vertex="1">
          <mxGeometry x="1070" y="650" width="120" height="40" as="geometry" />
        </mxCell>
        <mxCell id="TByVffR39HUTfPPyJdH0-7" style="edgeStyle=orthogonalEdgeStyle;rounded=0;orthogonalLoop=1;jettySize=auto;html=1;exitX=0.5;exitY=1;exitDx=0;exitDy=0;entryX=0.5;entryY=0;entryDx=0;entryDy=0;" edge="1" parent="1" source="TByVffR39HUTfPPyJdH0-1" target="BX7kA0cPgQBeDkkXXVo6-10">
          <mxGeometry relative="1" as="geometry" />
        </mxCell>
        <mxCell id="TByVffR39HUTfPPyJdH0-1" value="StackPane" style="rounded=0;whiteSpace=wrap;html=1;" vertex="1" parent="1">
          <mxGeometry x="330" y="470" width="120" height="40" as="geometry" />
        </mxCell>
        <mxCell id="TByVffR39HUTfPPyJdH0-9" style="edgeStyle=orthogonalEdgeStyle;rounded=0;orthogonalLoop=1;jettySize=auto;html=1;" edge="1" parent="1" source="TByVffR39HUTfPPyJdH0-2" target="BX7kA0cPgQBeDkkXXVo6-21">
          <mxGeometry relative="1" as="geometry" />
        </mxCell>
        <mxCell id="TByVffR39HUTfPPyJdH0-2" value="StackPane" style="rounded=0;whiteSpace=wrap;html=1;" vertex="1" parent="1">
          <mxGeometry x="530" y="470" width="120" height="40" as="geometry" />
        </mxCell>
        <mxCell id="TByVffR39HUTfPPyJdH0-11" style="edgeStyle=orthogonalEdgeStyle;rounded=0;orthogonalLoop=1;jettySize=auto;html=1;exitX=0.5;exitY=1;exitDx=0;exitDy=0;entryX=0.5;entryY=0;entryDx=0;entryDy=0;" edge="1" parent="1" source="TByVffR39HUTfPPyJdH0-3" target="BX7kA0cPgQBeDkkXXVo6-38">
          <mxGeometry relative="1" as="geometry" />
        </mxCell>
        <mxCell id="TByVffR39HUTfPPyJdH0-3" value="StackPane" style="rounded=0;whiteSpace=wrap;html=1;" vertex="1" parent="1">
          <mxGeometry x="690" y="470" width="120" height="40" as="geometry" />
        </mxCell>
        <mxCell id="TByVffR39HUTfPPyJdH0-13" style="edgeStyle=orthogonalEdgeStyle;rounded=0;orthogonalLoop=1;jettySize=auto;html=1;exitX=0.5;exitY=1;exitDx=0;exitDy=0;entryX=0.5;entryY=0;entryDx=0;entryDy=0;" edge="1" parent="1" source="TByVffR39HUTfPPyJdH0-4" target="BX7kA0cPgQBeDkkXXVo6-33">
          <mxGeometry relative="1" as="geometry" />
        </mxCell>
        <mxCell id="TByVffR39HUTfPPyJdH0-4" value="StackPane" style="rounded=0;whiteSpace=wrap;html=1;" vertex="1" parent="1">
          <mxGeometry x="850" y="470" width="120" height="40" as="geometry" />
        </mxCell>
        <mxCell id="TByVffR39HUTfPPyJdH0-5" value="StackPane" style="rounded=0;whiteSpace=wrap;html=1;" vertex="1" parent="1">
          <mxGeometry x="1027" y="460" width="120" height="40" as="geometry" />
        </mxCell>
        <mxCell id="TByVffR39HUTfPPyJdH0-15" style="edgeStyle=orthogonalEdgeStyle;rounded=0;orthogonalLoop=1;jettySize=auto;html=1;exitX=0.5;exitY=1;exitDx=0;exitDy=0;entryX=0.425;entryY=0.025;entryDx=0;entryDy=0;entryPerimeter=0;" edge="1" parent="1" source="TByVffR39HUTfPPyJdH0-5" target="HLrpRylggNIvmOIp0Eyk-3">
          <mxGeometry relative="1" as="geometry" />
        </mxCell>
        <mxCell id="TByVffR39HUTfPPyJdH0-28" style="edgeStyle=orthogonalEdgeStyle;rounded=0;orthogonalLoop=1;jettySize=auto;html=1;exitX=0.5;exitY=1;exitDx=0;exitDy=0;entryX=0.5;entryY=0;entryDx=0;entryDy=0;" edge="1" parent="1" source="TByVffR39HUTfPPyJdH0-17" target="BX7kA0cPgQBeDkkXXVo6-1">
          <mxGeometry relative="1" as="geometry" />
        </mxCell>
        <mxCell id="TByVffR39HUTfPPyJdH0-31" style="edgeStyle=orthogonalEdgeStyle;rounded=0;orthogonalLoop=1;jettySize=auto;html=1;exitX=0.5;exitY=1;exitDx=0;exitDy=0;entryX=0.5;entryY=0;entryDx=0;entryDy=0;" edge="1" parent="1" source="TByVffR39HUTfPPyJdH0-17" target="TByVffR39HUTfPPyJdH0-19">
          <mxGeometry relative="1" as="geometry" />
        </mxCell>
        <mxCell id="TByVffR39HUTfPPyJdH0-32" style="edgeStyle=orthogonalEdgeStyle;rounded=0;orthogonalLoop=1;jettySize=auto;html=1;exitX=0.5;exitY=1;exitDx=0;exitDy=0;" edge="1" parent="1" source="TByVffR39HUTfPPyJdH0-17" target="TByVffR39HUTfPPyJdH0-30">
          <mxGeometry relative="1" as="geometry" />
        </mxCell>
        <mxCell id="TByVffR39HUTfPPyJdH0-17" value="BorderPane" style="rounded=0;whiteSpace=wrap;html=1;" vertex="1" parent="1">
          <mxGeometry x="600" y="90" width="120" height="40" as="geometry" />
        </mxCell>
        <mxCell id="TByVffR39HUTfPPyJdH0-24" style="edgeStyle=orthogonalEdgeStyle;rounded=0;orthogonalLoop=1;jettySize=auto;html=1;exitX=0.5;exitY=1;exitDx=0;exitDy=0;entryX=0.5;entryY=0;entryDx=0;entryDy=0;" edge="1" parent="1" source="TByVffR39HUTfPPyJdH0-19" target="TByVffR39HUTfPPyJdH0-22">
          <mxGeometry relative="1" as="geometry" />
        </mxCell>
        <mxCell id="TByVffR39HUTfPPyJdH0-19" value="MenuBar" style="rounded=0;whiteSpace=wrap;html=1;" vertex="1" parent="1">
          <mxGeometry x="10" y="220" width="120" height="40" as="geometry" />
        </mxCell>
        <mxCell id="TByVffR39HUTfPPyJdH0-26" style="edgeStyle=orthogonalEdgeStyle;rounded=0;orthogonalLoop=1;jettySize=auto;html=1;exitX=0.5;exitY=1;exitDx=0;exitDy=0;entryX=0.5;entryY=0;entryDx=0;entryDy=0;" edge="1" parent="1" source="TByVffR39HUTfPPyJdH0-22" target="TByVffR39HUTfPPyJdH0-25">
          <mxGeometry relative="1" as="geometry" />
        </mxCell>
        <mxCell id="TByVffR39HUTfPPyJdH0-27" style="edgeStyle=orthogonalEdgeStyle;rounded=0;orthogonalLoop=1;jettySize=auto;html=1;exitX=0.5;exitY=1;exitDx=0;exitDy=0;entryX=0.5;entryY=0;entryDx=0;entryDy=0;" edge="1" parent="1" source="TByVffR39HUTfPPyJdH0-22" target="TByVffR39HUTfPPyJdH0-23">
          <mxGeometry relative="1" as="geometry" />
        </mxCell>
        <mxCell id="TByVffR39HUTfPPyJdH0-22" value="Menu" style="rounded=0;whiteSpace=wrap;html=1;" vertex="1" parent="1">
          <mxGeometry x="10" y="380" width="120" height="40" as="geometry" />
        </mxCell>
        <mxCell id="TByVffR39HUTfPPyJdH0-23" value="MenuItem" style="rounded=0;whiteSpace=wrap;html=1;" vertex="1" parent="1">
          <mxGeometry x="-80" y="480" width="120" height="40" as="geometry" />
        </mxCell>
        <mxCell id="TByVffR39HUTfPPyJdH0-25" value="MenuItem" style="rounded=0;whiteSpace=wrap;html=1;" vertex="1" parent="1">
          <mxGeometry x="80" y="480" width="120" height="40" as="geometry" />
        </mxCell>
        <mxCell id="TByVffR39HUTfPPyJdH0-34" style="edgeStyle=orthogonalEdgeStyle;rounded=0;orthogonalLoop=1;jettySize=auto;html=1;exitX=0.5;exitY=1;exitDx=0;exitDy=0;" edge="1" parent="1" source="TByVffR39HUTfPPyJdH0-30" target="TByVffR39HUTfPPyJdH0-33">
          <mxGeometry relative="1" as="geometry" />
        </mxCell>
        <mxCell id="TByVffR39HUTfPPyJdH0-36" style="edgeStyle=orthogonalEdgeStyle;rounded=0;orthogonalLoop=1;jettySize=auto;html=1;exitX=0.5;exitY=1;exitDx=0;exitDy=0;entryX=0.5;entryY=0;entryDx=0;entryDy=0;" edge="1" parent="1" source="TByVffR39HUTfPPyJdH0-30" target="TByVffR39HUTfPPyJdH0-35">
          <mxGeometry relative="1" as="geometry" />
        </mxCell>
        <mxCell id="TByVffR39HUTfPPyJdH0-30" value="VBox" style="rounded=0;whiteSpace=wrap;html=1;" vertex="1" parent="1">
          <mxGeometry x="1290" y="220" width="120" height="40" as="geometry" />
        </mxCell>
        <mxCell id="TByVffR39HUTfPPyJdH0-33" value="Button" style="rounded=0;whiteSpace=wrap;html=1;" vertex="1" parent="1">
          <mxGeometry x="1181" y="380" width="120" height="40" as="geometry" />
        </mxCell>
        <mxCell id="TByVffR39HUTfPPyJdH0-35" value="SplitMenuButton&amp;nbsp;" style="rounded=0;whiteSpace=wrap;html=1;" vertex="1" parent="1">
          <mxGeometry x="1410" y="380" width="120" height="40" as="geometry" />
        </mxCell>
        <mxCell id="TByVffR39HUTfPPyJdH0-37" value="(VueSelecteurGantt)" style="text;html=1;strokeColor=none;fillColor=none;align=center;verticalAlign=middle;whiteSpace=wrap;rounded=0;" vertex="1" parent="1">
          <mxGeometry x="1440" y="330" width="60" height="30" as="geometry" />
        </mxCell>
      </root>
    </mxGraphModel>
  </diagram>
</mxfile>
